<?xml version="1.0" encoding="utf-8"?>
<!-- Generator: Adobe Illustrator 21.0.0, SVG Export Plug-In . SVG Version: 6.00 Build 0)  -->
<svg version="1.1" id="Layer_1" xmlns="http://www.w3.org/2000/svg" xmlns:xlink="http://www.w3.org/1999/xlink" x="0px" y="0px"
	 viewBox="0 0 600 310" style="enable-background:new 0 0 600 310;" xml:space="preserve">
<style type="text/css">
	.st0{fill:#FF1D25;}
</style>
<g>
	<path class="st0" d="M36.6,42.6c1.6-7.4-1.9-10.4-7-13.9c-6.6-4.5-7.1-5.8-6.3-9.6c0.9-4,3.4-7.7,7.9-7.7c4.1,0,5.1,3.5,5.1,7.1
		l4.9-0.7c0-6-2.2-10.9-9-10.9c-6.8,0-12.4,5.8-13.8,12.2c-1.5,7.1,1.7,9.4,6.5,12.6c4.4,2.9,8,5,6.7,11.4c-1.2,5.8-4.8,8.6-9,8.6
		c-5.8,0-6.1-4-5.6-9.4l-5,0.6c-0.9,7.6,1,13.2,9.5,13.2C29.7,56.2,35,50.2,36.6,42.6z"/>
	<path class="st0" d="M74.5,18H62.9l-8,37.5h4.8l3.5-16.1h8.1c5.3,0,11.5-3.2,13.2-11.2C85.6,22.7,83.2,18,74.5,18z M79.3,28.6
		c-0.9,4.3-3.9,6.5-8.6,6.5H64l2.7-12.7h6.6C77.3,22.3,80.4,23.5,79.3,28.6z"/>
	<path class="st0" d="M107.9,56.2c13.1,0,16.8-16.3,17.4-19.4c3.2-15.1-3.2-19.4-9.1-19.4c-6.2,0-14.3,4.5-17.5,19.4
		C95.5,51.8,101.8,56.2,107.9,56.2z M103.7,36.8c1.2-5.5,4.2-14.9,11.4-14.9s6.3,9.4,5.1,14.9c-1.2,5.5-4.2,14.8-11.4,14.8
		C101.5,51.6,102.5,42.3,103.7,36.8z"/>
	<polygon class="st0" points="150.6,22.3 155.8,22.3 149.7,51.2 144.4,51.2 143.5,55.5 158.9,55.5 159.8,51.2 154.5,51.2 
		160.6,22.3 166,22.3 166.9,18 151.5,18 	"/>
	<polygon class="st0" points="210.5,51.2 190.8,51.2 197.9,18 193,18 185,55.5 209.5,55.5 	"/>
	<polygon class="st0" points="227.3,55.5 250.7,55.5 251.6,51.2 233.1,51.2 235.9,37.9 251.2,37.9 252.1,33.5 236.8,33.5 
		239.2,22.3 257.8,22.3 258.7,18 235.3,18 	"/>
	<path class="st0" d="M288.3,18h-12.5l-0.9,4.3h3.9l-6.1,28.9h-3.9l-0.9,4.3h12.5c13.5,0,17.1-7.5,19.6-19.2
		C302.8,22.4,298.9,18,288.3,18z M294.7,36.8c-2.3,10.8-5.8,14.4-12.2,14.4h-5.1l6.1-28.9h5C294.5,22.3,297.1,25.3,294.7,36.8z"/>
	<polygon class="st0" points="18.2,98.2 28.6,98.2 19.3,141.9 24.1,141.9 33.4,98.2 43.6,98.2 44.5,93.9 19.2,93.9 	"/>
	<path class="st0" d="M72.9,103.7c-6.2,0-14.3,4.5-17.5,19.4c-3.2,15,3.2,19.4,9.2,19.4c13.1,0,16.8-16.3,17.4-19.4
		C85.3,108.1,78.9,103.7,72.9,103.7z M77,123.2c-1.2,5.5-4.2,14.8-11.4,14.8c-7.3,0-6.3-9.4-5.1-14.8c1.2-5.5,4.2-14.9,11.4-14.9
		S78.3,117.6,77,123.2z"/>
	<polygon class="st0" points="112.5,120.7 109.2,104.4 102.9,104.4 93.4,141.9 98.5,141.9 105.9,111.5 106.1,111.5 110.2,131.3 
		122.9,111.5 123,111.5 117.5,141.9 122.6,141.9 129.1,104.4 122.8,104.4 	"/>
	<path class="st0" d="M156.1,104.4l-19.7,36.7l4.4,1.7l5.9-11.2h13.3l1.1,11.2l5.1-1.7l-4-36.7H156.1z M149,127.4l9-17.4l1.7,17.4
		H149z"/>
	<polygon class="st0" points="188.8,108.7 199.2,108.7 192.1,141.9 196.9,141.9 204,108.7 214.1,108.7 215.1,104.4 189.7,104.4 	"/>
	<polygon class="st0" points="236.9,108.7 242.2,108.7 236.1,137.6 230.8,137.6 229.9,141.9 245.3,141.9 246.2,137.6 240.9,137.6 
		247,108.7 252.4,108.7 253.3,104.4 237.9,104.4 	"/>
	<polygon class="st0" points="284.3,104.4 279.4,104.4 271.4,141.9 295.9,141.9 296.9,137.6 277.2,137.6 	"/>
	<polygon class="st0" points="327.5,104.4 322.6,104.4 314.6,141.9 339.1,141.9 340.1,137.6 320.4,137.6 	"/>
	<path class="st0" d="M375.3,103.7c-6.2,0-14.3,4.5-17.5,19.4c-3.2,15,3.2,19.4,9.2,19.4c13.1,0,16.8-16.3,17.4-19.4
		C387.7,108.1,381.3,103.7,375.3,103.7z M379.4,123.2c-1.2,5.5-4.2,14.8-11.4,14.8c-7.3,0-6.3-9.4-5.1-14.8
		c1.2-5.5,4.2-14.9,11.4-14.9S380.7,117.6,379.4,123.2z"/>
	<path class="st0" d="M421.6,122.6l-7.3-3.5c-2.6-1.2-4.5-2.3-3.7-5.8c0.7-3.4,4-5,7.1-5c4.1,0,5.5,2.6,5.6,6.3l4.9-1.4
		c-0.3-5.8-3.2-9.4-9.4-9.4c-5.9,0-11.8,3.5-13.1,9.9c-1.5,7.1,3.3,8.5,8.4,10.8c3.3,1.5,7,2.7,6,7.3c-0.9,4.2-4.5,6.3-8.4,6.3
		c-5,0-6.6-3.4-6.5-8l-4.6,1.4c-0.3,6.7,3.2,11.2,10.2,11.2c6.9,0,12.7-4,14.3-11.2C425.7,127.5,424.5,124.5,421.6,122.6z"/>
</g>
</svg>
